<?xml version="1.0" encoding="UTF-8" standalone="no"?>
<svg
   xmlns:dc="http://purl.org/dc/elements/1.1/"
   xmlns:cc="http://creativecommons.org/ns#"
   xmlns:rdf="http://www.w3.org/1999/02/22-rdf-syntax-ns#"
   xmlns:svg="http://www.w3.org/2000/svg"
   xmlns="http://www.w3.org/2000/svg"
   version="1.1"
   id="svg9562"
   viewBox="0 0 62.195829 73.265919"
   height="20.677271mm"
   width="17.553045mm">
  <defs
     id="defs9564">
    <mask
       id="mask35451"
       maskUnits="userSpaceOnUse">
      <rect
         ry="2.4555299"
         y="95.999962"
         x="81.599991"
         height="835.19995"
         width="1725.6"
         id="rect35453"
         style="opacity:1;fill:#ffffff;fill-opacity:1;fill-rule:nonzero;stroke:none;stroke-width:3;stroke-linecap:round;stroke-linejoin:miter;stroke-miterlimit:4;stroke-dasharray:none;stroke-dashoffset:0;stroke-opacity:1" />
    </mask>
  </defs>
  <metadata
     id="metadata9567">
    <rdf:RDF>
      <cc:Work
         rdf:about="">
        <dc:format>image/svg+xml</dc:format>
        <dc:type
           rdf:resource="http://purl.org/dc/dcmitype/StillImage" />
        <dc:title></dc:title>
      </cc:Work>
    </rdf:RDF>
  </metadata>
  <g
     transform="translate(-920.04821,-1118.022)"
     id="layer1">
    <g
       transform="matrix(1.1317047,0,0,1.1317047,-11946.196,-2132.7614)"
       id="g11919">
      <rect
         style="opacity:1;fill:none;fill-opacity:1;fill-rule:nonzero;stroke:#000000;stroke-width:1.25566196;stroke-linecap:round;stroke-linejoin:round;stroke-miterlimit:4;stroke-dasharray:none;stroke-dashoffset:0;stroke-opacity:1"
         id="rect11632"
         width="14.32219"
         height="11.188972"
         x="10894.016"
         y="-4434.7363"
         ry="0"
         transform="matrix(0.80603278,0.5918709,-0.5918709,0.80603278,0,0)" />
      <path
         style="opacity:1;fill:none;fill-opacity:1;fill-rule:nonzero;stroke:#000000;stroke-width:1.25566196;stroke-linecap:round;stroke-linejoin:round;stroke-miterlimit:4;stroke-dasharray:none;stroke-dashoffset:0;stroke-opacity:1"
         d="m 11401.902,2884.4633 5.704,4.1881 -4.879,18.4101 -16.921,23.0437 -6.827,-5.0125 16.014,-21.8089 z"
         id="rect11667" />
      <rect
         style="opacity:1;fill:none;fill-opacity:1;fill-rule:nonzero;stroke:#000000;stroke-width:1.25566196;stroke-linecap:round;stroke-linejoin:round;stroke-miterlimit:4;stroke-dasharray:none;stroke-dashoffset:0;stroke-opacity:1"
         id="rect11670"
         width="5.9260511"
         height="2.8972731"
         x="10904.376"
         y="-4377.1689"
         ry="0"
         transform="matrix(0.80603278,0.5918709,-0.5918709,0.80603278,0,0)" />
      <rect
         style="opacity:1;fill:none;fill-opacity:1;fill-rule:nonzero;stroke:#000000;stroke-width:1.25566196;stroke-linecap:round;stroke-linejoin:round;stroke-miterlimit:4;stroke-dasharray:none;stroke-dashoffset:0;stroke-opacity:1"
         id="rect11670-7"
         width="1.3955369"
         height="9.5220108"
         x="10892.611"
         y="-4433.9707"
         ry="0"
         transform="matrix(0.80603278,0.5918709,-0.5918709,0.80603278,0,0)" />
      <path
         style="opacity:1;fill:none;fill-opacity:1;fill-rule:nonzero;stroke:#000000;stroke-width:1.25566196;stroke-linecap:round;stroke-linejoin:round;stroke-miterlimit:4;stroke-dasharray:none;stroke-dashoffset:0;stroke-opacity:1"
         d="m 11416.92,2882.4783 3.242,3.847 -4.354,5.9288 -4.525,-2.1006 z"
         id="rect11670-7-0" />
      <path
         style="fill:none;fill-rule:evenodd;stroke:#000000;stroke-width:1.25566196;stroke-linecap:butt;stroke-linejoin:miter;stroke-miterlimit:4;stroke-dasharray:none;stroke-opacity:1"
         d="m 11418.078,2889.2335 4.854,3.564"
         id="path11712" />
      <path
         style="opacity:1;fill:none;fill-opacity:1;fill-rule:nonzero;stroke:#000000;stroke-width:1.25566196;stroke-linecap:round;stroke-linejoin:round;stroke-miterlimit:4;stroke-dasharray:none;stroke-dashoffset:0;stroke-opacity:1"
         id="path11714"
         d="m 10919.768,-4429.1768 a 0.24369483,0.24369483 0 0 1 -0.243,0.2437 0.24369483,0.24369483 0 0 1 -0.244,-0.242 0.24369483,0.24369483 0 0 1 0.241,-0.2453 0.24369483,0.24369483 0 0 1 0.246,0.2403"
         transform="matrix(0.80603278,0.5918709,-0.5918709,0.80603278,0,0)" />
      <path
         style="fill:none;fill-rule:evenodd;stroke:#000000;stroke-width:1.25566196;stroke-linecap:round;stroke-linejoin:miter;stroke-miterlimit:4;stroke-dasharray:none;stroke-opacity:1"
         d="m 11390.215,2908.2982 10.367,2.641"
         id="path11377-4" />
      <path
         style="fill:none;fill-rule:evenodd;stroke:#000000;stroke-width:1.25566196;stroke-linecap:round;stroke-linejoin:miter;stroke-miterlimit:4;stroke-dasharray:none;stroke-opacity:1"
         d="m 11385.969,2914.08 10.368,2.6411"
         id="path11377-9-8" />
      <path
         style="fill:none;fill-rule:evenodd;stroke:#000000;stroke-width:1.25566196;stroke-linecap:round;stroke-linejoin:miter;stroke-miterlimit:4;stroke-dasharray:none;stroke-opacity:1"
         d="m 11381.778,2919.7866 10.368,2.641"
         id="path11377-9-6-0" />
      <path
         style="fill:none;fill-rule:evenodd;stroke:#000000;stroke-width:1.25566196;stroke-linecap:butt;stroke-linejoin:miter;stroke-miterlimit:4;stroke-dasharray:none;stroke-opacity:1"
         d="m 11380.658,2930.1589 -4.211,5.7347 c 0,0 -1.136,1.4531 -2.954,0.1595 -1.818,-1.2925 -0.343,-3.1919 -0.343,-3.1919 l 1.881,-2.7265 c 0,0 0.882,-1.0834 -0.537,-2.1942 -1.421,-1.1126 -2.565,0.6155 -2.565,0.6155 l -2.536,3.119"
         id="path11737" />
    </g>
  </g>
</svg>
