<?xml version="1.0" encoding="UTF-8" standalone="no"?>
<!-- Created with Inkscape (http://www.inkscape.org/) -->

<svg
   xmlns:dc="http://purl.org/dc/elements/1.1/"
   xmlns:cc="http://creativecommons.org/ns#"
   xmlns:rdf="http://www.w3.org/1999/02/22-rdf-syntax-ns#"
   xmlns:svg="http://www.w3.org/2000/svg"
   xmlns="http://www.w3.org/2000/svg"
   xmlns:sodipodi="http://sodipodi.sourceforge.net/DTD/sodipodi-0.dtd"
   xmlns:inkscape="http://www.inkscape.org/namespaces/inkscape"
   width="16.829876mm"
   height="11.220136mm"
   viewBox="0 0 16.829876 11.220136"
   version="1.1"
   id="svg2669"
   inkscape:version="0.92.0 r15299"
   sodipodi:docname="flag-en.svg">
  <defs
     id="defs2663" />
  <sodipodi:namedview
     id="base"
     pagecolor="#ffffff"
     bordercolor="#666666"
     borderopacity="1.0"
     inkscape:pageopacity="0.0"
     inkscape:pageshadow="2"
     inkscape:zoom="1.979899"
     inkscape:cx="13.564645"
     inkscape:cy="-44.32889"
     inkscape:document-units="mm"
     inkscape:current-layer="layer1"
     showgrid="false"
     units="in"
     fit-margin-top="0"
     fit-margin-left="0"
     fit-margin-right="0"
     fit-margin-bottom="0"
     inkscape:window-width="755"
     inkscape:window-height="707"
     inkscape:window-x="0"
     inkscape:window-y="0"
     inkscape:window-maximized="0" />
  <metadata
     id="metadata2666">
    <rdf:RDF>
      <cc:Work
         rdf:about="">
        <dc:format>image/svg+xml</dc:format>
        <dc:type
           rdf:resource="http://purl.org/dc/dcmitype/StillImage" />
        <dc:title></dc:title>
      </cc:Work>
    </rdf:RDF>
  </metadata>
  <g
     inkscape:label="Layer 1"
     inkscape:groupmode="layer"
     id="layer1"
     transform="translate(6.2844446,17.490349)">
    <g
       id="g9044-1-3-6"
       transform="matrix(0.03287085,0,0,0.03287085,-6.2844446,-20.295219)"
       inkscape:export-xdpi="101.597"
       inkscape:export-ydpi="101.597">
      <rect
         id="rect8964-7-7-1"
         height="341.33701"
         width="512"
         style="fill:#f0f0f0"
         y="85.333"
         x="0" />
      <polygon
         id="polygon8966-5-0-0"
         points="224,223.996 0,223.996 0,287.996 224,287.996 224,426.662 288,426.662 288,287.996 512,287.996 512,223.996 288,223.996 288,85.33 224,85.33 "
         style="fill:#d80027" />
      <g
         id="g8968-9-0-4">
        <polygon
           id="polygon8970-6-3-2"
           points="512,315.358 393.785,315.358 512,381.034 "
           style="fill:#0052b4" />
        <polygon
           id="polygon8972-2-4-2"
           points="512,395.188 368.307,315.358 311.652,315.358 512,426.662 "
           style="fill:#0052b4" />
        <polygon
           id="polygon8974-1-9-2"
           points="311.652,426.662 458.634,426.662 311.652,344.998 "
           style="fill:#0052b4" />
      </g>
      <polygon
         id="polygon8976-7-2-0"
         points="512,395.188 368.307,315.358 311.652,315.358 512,426.662 "
         style="fill:#f0f0f0" />
      <polygon
         id="polygon8978-8-7-5"
         points="512,395.188 368.307,315.358 311.652,315.358 512,426.662 "
         style="fill:#d80027" />
      <g
         id="g8980-5-4-5">
        <polygon
           id="polygon8982-7-2-2"
           points="0,315.356 90.341,315.356 0,365.546 "
           style="fill:#0052b4" />
        <polygon
           id="polygon8984-4-5-9"
           points="25.491,426.661 200.348,329.51 200.348,426.661 "
           style="fill:#0052b4" />
      </g>
      <polygon
         id="polygon8986-1-2-0"
         points="143.693,315.358 0,395.188 0,426.662 200.348,315.358 "
         style="fill:#d80027" />
      <g
         id="g8988-8-4-2">
        <polygon
           id="polygon8990-5-4-8"
           points="0,196.634 118.215,196.634 0,130.958 "
           style="fill:#0052b4" />
        <polygon
           id="polygon8992-9-3-3"
           points="0,116.804 143.693,196.634 200.348,196.634 0,85.33 "
           style="fill:#0052b4" />
        <polygon
           id="polygon8994-7-8-8"
           points="200.348,85.33 53.366,85.33 200.348,166.994 "
           style="fill:#0052b4" />
      </g>
      <polygon
         id="polygon8996-5-6-0"
         points="0,116.804 143.693,196.634 200.348,196.634 0,85.33 "
         style="fill:#f0f0f0" />
      <polygon
         id="polygon8998-3-0-4"
         points="0,116.804 143.693,196.634 200.348,196.634 0,85.33 "
         style="fill:#d80027" />
      <g
         id="g9000-8-8-0">
        <polygon
           id="polygon9002-8-9-9"
           points="512,196.636 421.659,196.636 512,146.446 "
           style="fill:#0052b4" />
        <polygon
           id="polygon9004-3-2-1"
           points="486.509,85.331 311.652,182.482 311.652,85.331 "
           style="fill:#0052b4" />
      </g>
      <polygon
         id="polygon9006-1-2-9"
         points="368.307,196.634 512,116.804 512,85.33 311.652,196.634 "
         style="fill:#d80027" />
      <g
         id="g9008-8-3-6" />
      <g
         id="g9010-9-1-2" />
      <g
         id="g9012-6-8-5" />
      <g
         id="g9014-4-3-4" />
      <g
         id="g9016-3-4-4" />
      <g
         id="g9018-3-2-9" />
      <g
         id="g9020-3-2-9" />
      <g
         id="g9022-8-4-3" />
      <g
         id="g9024-6-5-6" />
      <g
         id="g9026-0-1-0" />
      <g
         id="g9028-4-7-5" />
      <g
         id="g9030-8-5-0" />
      <g
         id="g9032-8-7-2" />
      <g
         id="g9034-8-1-9" />
      <g
         id="g9036-9-6-4" />
    </g>
  </g>
</svg>
