<?xml version="1.0" encoding="UTF-8" standalone="no"?>
<!-- Created with Inkscape (http://www.inkscape.org/) -->

<svg
   xmlns:dc="http://purl.org/dc/elements/1.1/"
   xmlns:cc="http://creativecommons.org/ns#"
   xmlns:rdf="http://www.w3.org/1999/02/22-rdf-syntax-ns#"
   xmlns:svg="http://www.w3.org/2000/svg"
   xmlns="http://www.w3.org/2000/svg"
   xmlns:sodipodi="http://sodipodi.sourceforge.net/DTD/sodipodi-0.dtd"
   xmlns:inkscape="http://www.inkscape.org/namespaces/inkscape"
   width="19.469328mm"
   height="15.434725mm"
   viewBox="0 0 68.985808 54.68997"
   id="svg85298"
   version="1.1"
   inkscape:version="0.91 r13725"
   sodipodi:docname="landline.svg">
  <defs
     id="defs85300" />
  <sodipodi:namedview
     id="base"
     pagecolor="#ffffff"
     bordercolor="#666666"
     borderopacity="1.0"
     inkscape:pageopacity="0.0"
     inkscape:pageshadow="2"
     inkscape:zoom="1.979899"
     inkscape:cx="-0.30202174"
     inkscape:cy="61.960881"
     inkscape:document-units="px"
     inkscape:current-layer="layer1"
     showgrid="false"
     fit-margin-top="0"
     fit-margin-left="0"
     fit-margin-right="0"
     fit-margin-bottom="0"
     inkscape:window-width="1920"
     inkscape:window-height="1043"
     inkscape:window-x="1920"
     inkscape:window-y="0"
     inkscape:window-maximized="1" />
  <metadata
     id="metadata85303">
    <rdf:RDF>
      <cc:Work
         rdf:about="">
        <dc:format>image/svg+xml</dc:format>
        <dc:type
           rdf:resource="http://purl.org/dc/dcmitype/StillImage" />
        <dc:title></dc:title>
      </cc:Work>
    </rdf:RDF>
  </metadata>
  <g
     inkscape:label="Layer 1"
     inkscape:groupmode="layer"
     id="layer1"
     transform="translate(-168.36424,-793.5886)">
    <g
       id="g85140"
       transform="matrix(0.3528266,0,0,0.3528266,568.40503,1266.0024)"
       style="stroke:#000000;stroke-width:4.81823063;stroke-miterlimit:4;stroke-dasharray:none;stroke-opacity:1">
      <path
         sodipodi:nodetypes="sssssssss"
         inkscape:connector-curvature="0"
         id="rect85038-1"
         d="m -1070.0167,-1291.7237 68.9867,0 c 9.73259,0 16.55769,7.3662 17.56789,16.3896 l 7.883,70.4149 c 1.1449,10.2266 -8.88,18.5749 -19.9103,18.5749 l -78.18489,0 c -11.0303,0 -20.784,-8.3216 -19.9103,-18.5749 l 6,-70.4149 c 0.7709,-9.047 7.8353,-16.3896 17.5679,-16.3896 z"
         style="opacity:1;fill:none;fill-opacity:1;fill-rule:nonzero;stroke:#000000;stroke-width:4.81823063;stroke-linecap:round;stroke-linejoin:miter;stroke-miterlimit:4;stroke-dasharray:none;stroke-dashoffset:0;stroke-opacity:1" />
      <path
         sodipodi:nodetypes="zczzsccszzczz"
         inkscape:connector-curvature="0"
         id="path85040-3-2"
         d="m -1068.5482,-1316.7814 c -16.3564,3.2949 -13.9274,13.7439 -13.9274,13.7439 0,0 4.0059,7.2035 -0.471,13.3302 -4.4769,6.1267 -30.6415,14.7736 -39.2199,11.412 -8.5784,-3.3616 -8.6136,-11.6548 -9.0992,-15.7826 -0.4856,-4.1278 -0.9105,-24.1596 22.5813,-32.5365 42.9739,-12.7828 105.1839,-13.5346 145.25809,0 23.4918,8.3769 23.0669,28.4087 22.5813,32.5365 -0.4856,4.1278 -0.3247,11.9918 -8.9031,15.3534 -8.5784,3.3616 -34.9391,-4.8561 -39.416,-10.9828 -4.4769,-6.1267 -0.471,-13.3302 -0.471,-13.3302 0,0 3.9451,-12.0329 -12.39589,-14.2374 -16.3409,-2.2045 -50.1608,-2.8014 -66.5172,0.4935 z"
         style="fill:none;fill-rule:evenodd;stroke:#000000;stroke-width:4.81823063;stroke-linecap:round;stroke-linejoin:round;stroke-miterlimit:4;stroke-dasharray:none;stroke-opacity:1" />
      <path
         transform="matrix(0.36353197,0.93158172,-0.93158172,0.36353197,0,0)"
         d="m -1506.821,511.90325 a 23.582865,23.582865 0 0 1 -21.9137,24.97711 23.582865,23.582865 0 0 1 -25.1387,-21.72818 23.582865,23.582865 0 0 1 21.5414,-25.29888 23.582865,23.582865 0 0 1 25.4577,21.35356"
         sodipodi:open="true"
         sodipodi:end="6.1920329"
         sodipodi:start="6.2216499"
         sodipodi:ry="23.582865"
         sodipodi:rx="23.582865"
         sodipodi:cy="513.35352"
         sodipodi:cx="-1530.3593"
         sodipodi:type="arc"
         id="path85067-1"
         style="opacity:1;fill:none;fill-opacity:1;fill-rule:nonzero;stroke:#000000;stroke-width:4.81823063;stroke-linecap:round;stroke-linejoin:round;stroke-miterlimit:4;stroke-dasharray:none;stroke-dashoffset:0;stroke-opacity:1" />
      <path
         sodipodi:nodetypes="csssc"
         inkscape:connector-curvature="0"
         id="rect85069-0"
         d="m -1066.5464,-1291.638 0.045,-19.6765 c 0,-0.9543 2.9989,-1.7226 6.7239,-1.7226 3.7251,0 6.7239,0.7683 6.7239,1.7226 l 0,19.6765"
         style="opacity:1;fill:none;fill-opacity:1;fill-rule:nonzero;stroke:#000000;stroke-width:4.81823063;stroke-linecap:round;stroke-linejoin:round;stroke-miterlimit:4;stroke-dasharray:none;stroke-dashoffset:0;stroke-opacity:1" />
      <path
         sodipodi:nodetypes="csssc"
         inkscape:connector-curvature="0"
         id="rect85069-7-8"
         d="m -1015.6408,-1291.643 0.046,-19.6674 c 0,-0.9538 3.0507,-1.7217 6.84,-1.7217 3.7894,0 6.84,0.7679 6.84,1.7217 l 0,19.6674"
         style="opacity:1;fill:none;fill-opacity:1;fill-rule:nonzero;stroke:#000000;stroke-width:4.81823063;stroke-linecap:round;stroke-linejoin:round;stroke-miterlimit:4;stroke-dasharray:none;stroke-dashoffset:0;stroke-opacity:1" />
    </g>
  </g>
</svg>
