<?xml version="1.0" encoding="UTF-8" standalone="no"?>
<!-- Created with Inkscape (http://www.inkscape.org/) -->

<svg
   xmlns:dc="http://purl.org/dc/elements/1.1/"
   xmlns:cc="http://creativecommons.org/ns#"
   xmlns:rdf="http://www.w3.org/1999/02/22-rdf-syntax-ns#"
   xmlns:svg="http://www.w3.org/2000/svg"
   xmlns="http://www.w3.org/2000/svg"
   xmlns:sodipodi="http://sodipodi.sourceforge.net/DTD/sodipodi-0.dtd"
   xmlns:inkscape="http://www.inkscape.org/namespaces/inkscape"
   width="69.317116mm"
   height="76.112007mm"
   viewBox="0 0 245.61183 269.68821"
   id="svg92844"
   version="1.1"
   inkscape:version="0.91 r13725"
   sodipodi:docname="panda.svg">
  <defs
     id="defs92846" />
  <sodipodi:namedview
     id="base"
     pagecolor="#ffffff"
     bordercolor="#666666"
     borderopacity="1.0"
     inkscape:pageopacity="0.0"
     inkscape:pageshadow="2"
     inkscape:zoom="0.35"
     inkscape:cx="-663.62256"
     inkscape:cy="183.41558"
     inkscape:document-units="px"
     inkscape:current-layer="layer1"
     showgrid="false"
     fit-margin-top="0"
     fit-margin-left="0"
     fit-margin-right="0"
     fit-margin-bottom="0"
     inkscape:window-width="1920"
     inkscape:window-height="1043"
     inkscape:window-x="1920"
     inkscape:window-y="0"
     inkscape:window-maximized="1" />
  <metadata
     id="metadata92849">
    <rdf:RDF>
      <cc:Work
         rdf:about="">
        <dc:format>image/svg+xml</dc:format>
        <dc:type
           rdf:resource="http://purl.org/dc/dcmitype/StillImage" />
        <dc:title></dc:title>
      </cc:Work>
    </rdf:RDF>
  </metadata>
  <g
     inkscape:label="Layer 1"
     inkscape:groupmode="layer"
     id="layer1"
     transform="translate(-260.05113,-446.08956)">
    <g
       id="g78333"
       transform="matrix(0.21304417,0,0,0.21304417,2248.7732,3412.3764)">
      <path
         sodipodi:nodetypes="zzzzzzz"
         inkscape:connector-curvature="0"
         id="path26069-0-1-4"
         d="m -9093.5524,-13561.758 c -70.7576,15.964 -198.2762,-15.788 -229.6556,-81.847 -31.3794,-66.06 7.9147,-133.508 36.1873,-169.32 28.2726,-35.811 83.778,-65.978 125.0925,-72.97 41.3145,-6.992 74.4986,12.23 100.7689,34.748 26.2703,22.517 69.9402,102.381 52.5434,160.37 -17.3968,57.99 -14.1789,113.054 -84.9365,129.019 z"
         style="fill:#333333;fill-opacity:1;fill-rule:evenodd;stroke:none;stroke-width:1px;stroke-linecap:butt;stroke-linejoin:miter;stroke-opacity:1" />
      <path
         sodipodi:nodetypes="zzzzzzz"
         inkscape:connector-curvature="0"
         id="path26071-6-3-3"
         d="m -8509.5934,-13710.744 c -34.6755,-49.633 -20.5444,-93.391 17.2891,-165.348 37.8336,-71.958 130.6648,-49.671 172.6031,-12.456 41.9381,37.215 67.023,63.459 83.6323,103.205 16.6094,39.747 19.1839,88.769 -13.3456,122.78 -32.5294,34.011 -136.9936,69.269 -181.5007,33.915 -44.5072,-35.354 -44.0027,-32.462 -78.6782,-82.096 z"
         style="fill:#333333;fill-opacity:1;fill-rule:evenodd;stroke:none;stroke-width:1px;stroke-linecap:butt;stroke-linejoin:miter;stroke-opacity:1" />
      <path
         sodipodi:nodetypes="zzcccczzzzz"
         inkscape:connector-curvature="0"
         id="path26067-3-9-7"
         d="m -9148.0291,-13538.416 c 47.8651,-105.07 76.0379,-154.766 145.9413,-218.912 69.9034,-64.146 108.213,-81.197 218.9119,-93.819 309.9703,-4.172 512.9279,301.683 573.3407,559.441 23.8217,108.32 43.4335,214.515 10.4243,312.731 -59.8388,208.042 -154.2242,208.654 -281.4581,250.185 -54.3521,19.446 -110.9816,73.883 -191.0263,71.234 -80.0447,-2.65 -108.7341,-40.172 -209.963,-67.548 -101.2289,-27.376 -97.1544,-28.819 -189.0269,-69.147 -91.8724,-40.327 -215.4234,-163.023 -216.1355,-337.614 -0.7121,-174.592 91.1265,-301.481 138.9916,-406.551 z"
         style="fill:#ffffff;fill-opacity:1;fill-rule:evenodd;stroke:none;stroke-width:1px;stroke-linecap:butt;stroke-linejoin:miter;stroke-opacity:1" />
      <path
         sodipodi:nodetypes="zzzzzzzzzzz"
         inkscape:connector-curvature="0"
         id="path26079-6-64-5"
         d="m -8959.4399,-12970.01 c 33.4739,-20.306 60.0809,48.443 86.5066,74.036 26.4257,25.594 46.6375,43.163 112.3262,52.691 65.6886,9.527 106.2517,-4.051 131.3789,-3.396 25.1271,0.656 60.0125,12.743 90.2753,8.208 30.2629,-4.535 70.0954,-28.408 76.765,-17.73 6.6697,10.677 -39.2017,35.604 -65.0066,41.082 -25.8047,5.478 -65.6551,-3.58 -100.9747,-0.972 -35.3196,2.607 -127.7995,22.543 -176.0964,15.908 -48.2969,-6.634 -110.4161,-38.504 -134.2924,-69.023 -23.8763,-30.519 -54.3557,-80.498 -20.8819,-100.804 z"
         style="fill:#333333;fill-opacity:1;fill-rule:evenodd;stroke:none;stroke-width:1px;stroke-linecap:butt;stroke-linejoin:miter;stroke-opacity:1" />
      <path
         sodipodi:nodetypes="czczzcc"
         inkscape:connector-curvature="0"
         id="path26073-1-2-8"
         d="m -8733.8092,-12941.435 c 18.7704,22.33 58.4168,50.136 101.7867,52.805 43.3699,2.669 99.8221,-32.996 121.6178,-57.334 26.6068,-38.271 -18.6114,-77.776 -46.997,-80.429 -28.3856,-2.654 -41.7709,12.079 -62.459,12.671 -20.6881,0.591 -48.3862,-11.319 -67.7585,-10.425 -49.2968,-2.692 -68.5507,54.096 -46.19,82.712 z"
         style="fill:#333333;fill-opacity:1;fill-rule:evenodd;stroke:none;stroke-width:1px;stroke-linecap:butt;stroke-linejoin:miter;stroke-opacity:1" />
      <path
         sodipodi:nodetypes="zzczccz"
         inkscape:connector-curvature="0"
         id="path26075-0-0-1"
         d="m -8854.4091,-13342.09 c 25.4447,-11.314 50.6319,-2.502 71.2332,27.798 20.6013,30.3 -17.0578,125.183 -33.0105,156.366 -17.595,34.31 -43.486,77.172 -67.7585,92.082 -24.2725,14.91 -63.3823,-11.649 -80.1055,-40.04 -41.7557,-80.337 27.9825,-111.711 65.4611,-157.093 19.0216,-24.582 18.7355,-67.8 44.1802,-79.113 z"
         style="fill:#333333;fill-opacity:1;fill-rule:evenodd;stroke:none;stroke-width:1px;stroke-linecap:butt;stroke-linejoin:miter;stroke-opacity:1" />
      <path
         sodipodi:nodetypes="zcczczzz"
         inkscape:connector-curvature="0"
         id="path26077-5-29-0"
         d="m -8524.3039,-13289.968 c 2.6252,-29.534 25.919,-53.577 46.9097,-60.809 54.6883,-7.005 54.467,62.923 71.2332,88.607 13.0455,18.811 42.9817,23.242 58.2028,66.89 15.2211,43.648 -14.3151,87.172 -49.4796,100.936 -19.2152,6.905 -49.6746,-10.838 -65.0214,-30.204 -15.3468,-19.367 -19.843,-38.25 -28.8342,-69.864 -8.9911,-31.614 -35.6357,-66.023 -33.0105,-95.556 z"
         style="fill:#333333;fill-opacity:1;fill-rule:evenodd;stroke:none;stroke-width:1px;stroke-linecap:butt;stroke-linejoin:miter;stroke-opacity:1" />
      <path
         sodipodi:nodetypes="ccccccccccccc"
         inkscape:connector-curvature="0"
         id="path26081-7-57-9"
         d="m -8922.0661,-12904.264 c -35.9752,19.93 -71.9504,39.86 -107.9256,59.791 -27.8724,15.188 -55.7448,30.375 -83.6172,45.563 -15.7801,4.059 -31.56,8.119 -47.3401,12.178 -7.0414,10.273 -14.0829,20.546 -21.1244,30.819 l -69.1724,56.016 c 9.5671,8.655 19.1342,17.31 28.7013,25.965 24.9017,-22.827 49.8035,-45.655 74.7053,-68.482 14.3494,-10.349 28.6987,-20.698 43.048,-31.047 40.6364,-19.657 81.2727,-39.315 121.909,-58.972 14.1599,-9.263 28.3197,-18.526 42.4796,-27.789 9.8377,-3.957 24.2636,-11.847 34.1014,-15.804 z"
         style="fill:#4c9029;fill-opacity:1;fill-rule:evenodd;stroke:none;stroke-width:1px;stroke-linecap:butt;stroke-linejoin:miter;stroke-opacity:1" />
      <path
         inkscape:export-ydpi="101.5"
         inkscape:export-xdpi="101.5"
         inkscape:export-filename="/home/zsuzsi/analogika/work/panda_dental/mockup/panda_sample.png"
         sodipodi:nodetypes="czzzzzcc"
         inkscape:connector-curvature="0"
         id="path83705-7-5-4-46-3"
         d="m -8512.6679,-13244.454 c 3.7679,-10.686 19.8785,-13.951 30.4934,-14.15 10.6148,-0.2 20.6123,8.031 27.0985,13.065 6.4862,5.034 8.3709,8.582 10.4535,16.082 2.0826,7.499 4.8652,19.684 1.641,27.468 -3.2242,7.785 -10.806,10.961 -18.6301,13.549 -7.8241,2.588 -22.0694,4.635 -29.2941,-1.886 -3.2597,-9.226 -18.9573,-42.836 -21.7622,-54.128 z"
         style="display:inline;fill:#ffffff;fill-opacity:1;fill-rule:evenodd;stroke:none;stroke-width:1px;stroke-linecap:butt;stroke-linejoin:miter;stroke-opacity:1" />
      <path
         inkscape:export-ydpi="101.5"
         inkscape:export-xdpi="101.5"
         inkscape:export-filename="/home/zsuzsi/analogika/work/panda_dental/mockup/panda_sample.png"
         sodipodi:nodetypes="zzzzccz"
         inkscape:connector-curvature="0"
         id="path83705-7-3-491-0"
         d="m -8512.966,-13244.974 c -1.223,-11.454 11.2548,-19.356 22.6451,-20.615 11.3902,-1.258 22.0461,2.18 30.0167,7.445 7.9706,5.265 13.7457,15.339 15.8283,22.838 2.0826,7.5 4.8652,19.685 1.641,27.469 -8.6751,15.039 -40.8887,22.065 -48.4366,13.201 -7.3037,-9.462 -20.4715,-38.884 -21.6945,-50.338 z"
         style="display:inline;fill:#000000;fill-opacity:1;fill-rule:evenodd;stroke:none;stroke-width:1px;stroke-linecap:butt;stroke-linejoin:miter;stroke-opacity:1" />
      <path
         sodipodi:nodetypes="zzzzzzz"
         inkscape:export-ydpi="101.5"
         inkscape:export-xdpi="101.5"
         inkscape:export-filename="/home/zsuzsi/analogika/work/panda_dental/mockup/panda_sample.png"
         inkscape:connector-curvature="0"
         id="path83810-4-2-2"
         d="m -8497.35,-13249.026 c 3.4289,-0.08 7.6037,4.534 9.4755,6.768 1.8718,2.234 1.9494,3.819 1.016,5.753 -0.9334,1.934 -3.0024,3.811 -5.7529,4.061 -2.7506,0.25 -7.1419,-0.846 -9.137,-2.708 -1.9951,-1.861 -1.8107,-4.261 -1.016,-6.768 0.7946,-2.506 1.9855,-7.028 5.4144,-7.106 z"
         style="display:inline;fill:#ffffff;fill-opacity:1;fill-rule:evenodd;stroke:none;stroke-width:1px;stroke-linecap:butt;stroke-linejoin:miter;stroke-opacity:1" />
      <path
         inkscape:export-ydpi="101.5"
         inkscape:export-xdpi="101.5"
         inkscape:export-filename="/home/zsuzsi/analogika/work/panda_dental/mockup/panda_sample.png"
         sodipodi:nodetypes="czzzzzzc"
         inkscape:connector-curvature="0"
         id="path83705-7-5-4-2-3-6"
         d="m -8785.5472,-13239.779 c -3.768,-10.685 -16.7295,-13.19 -27.3444,-13.39 -10.6148,-0.2 -20.6123,8.031 -27.0985,13.066 -6.4862,5.034 -8.3709,8.582 -10.4535,16.081 -2.0826,7.5 -4.8652,19.685 -1.641,27.469 3.2242,7.784 10.806,10.961 18.6301,13.549 7.8241,2.588 18.8231,2.971 28.7566,-2.952 9.9335,-5.923 16.3458,-42.531 19.1507,-53.823 z"
         style="display:inline;fill:#ffffff;fill-opacity:1;fill-rule:evenodd;stroke:none;stroke-width:1px;stroke-linecap:butt;stroke-linejoin:miter;stroke-opacity:1" />
      <path
         inkscape:export-ydpi="101.5"
         inkscape:export-xdpi="101.5"
         inkscape:export-filename="/home/zsuzsi/analogika/work/panda_dental/mockup/panda_sample.png"
         sodipodi:nodetypes="zzzzccz"
         inkscape:connector-curvature="0"
         id="path83705-7-3-4-1-4"
         d="m -8784.9234,-13240.95 c 1.2231,-11.454 -8.4315,-17.944 -19.8218,-19.203 -11.3902,-1.259 -22.0461,2.179 -30.0167,7.444 -7.9706,5.265 -13.7457,15.34 -15.8283,22.839 -2.0826,7.499 -4.8651,19.685 -1.641,27.469 8.6751,15.038 41.5402,22.173 49.0881,13.309 7.3038,-9.461 16.9967,-40.404 18.2197,-51.858 z"
         style="display:inline;fill:#000000;fill-opacity:1;fill-rule:evenodd;stroke:none;stroke-width:1px;stroke-linecap:butt;stroke-linejoin:miter;stroke-opacity:1" />
      <path
         sodipodi:nodetypes="zzzzzzz"
         inkscape:export-ydpi="101.5"
         inkscape:export-xdpi="101.5"
         inkscape:export-filename="/home/zsuzsi/analogika/work/panda_dental/mockup/panda_sample.png"
         inkscape:connector-curvature="0"
         id="path83810-4-5-8-3"
         d="m -8826.2706,-13243.59 c 3.4289,-0.08 7.6037,4.534 9.4755,6.768 1.8718,2.234 1.9494,3.819 1.016,5.753 -0.9334,1.933 -3.0023,3.81 -5.7529,4.06 -2.7506,0.25 -7.1419,-0.845 -9.137,-2.707 -1.9951,-1.862 -1.8107,-4.261 -1.016,-6.768 0.7947,-2.507 1.9855,-7.029 5.4144,-7.106 z"
         style="display:inline;fill:#ffffff;fill-opacity:1;fill-rule:evenodd;stroke:none;stroke-width:1px;stroke-linecap:butt;stroke-linejoin:miter;stroke-opacity:1" />
    </g>
  </g>
</svg>
