<?xml version="1.0" encoding="UTF-8" standalone="no"?>
<svg
   xmlns:dc="http://purl.org/dc/elements/1.1/"
   xmlns:cc="http://creativecommons.org/ns#"
   xmlns:rdf="http://www.w3.org/1999/02/22-rdf-syntax-ns#"
   xmlns:svg="http://www.w3.org/2000/svg"
   xmlns="http://www.w3.org/2000/svg"
   version="1.1"
   id="svg9562"
   viewBox="0 0 62.264535 67.752225"
   height="19.121183mm"
   width="17.572435mm">
  <defs
     id="defs9564" />
  <metadata
     id="metadata9567">
    <rdf:RDF>
      <cc:Work
         rdf:about="">
        <dc:format>image/svg+xml</dc:format>
        <dc:type
           rdf:resource="http://purl.org/dc/dcmitype/StillImage" />
        <dc:title></dc:title>
      </cc:Work>
    </rdf:RDF>
  </metadata>
  <g
     transform="translate(-882.29147,190.67851)"
     id="layer1">
    <g
       transform="translate(1388.9924,1350.5045)"
       id="g19079">
      <path
         style="fill:none;fill-rule:evenodd;stroke:#000000;stroke-width:1.70000005;stroke-linecap:round;stroke-linejoin:miter;stroke-miterlimit:4;stroke-dasharray:none;stroke-opacity:1"
         d="m -479.8243,-1536.9507 8.426,1e-4"
         id="path10418-1" />
      <rect
         style="opacity:1;fill:none;fill-opacity:1;fill-rule:nonzero;stroke:#000000;stroke-width:1.70000005;stroke-linecap:round;stroke-linejoin:round;stroke-miterlimit:4;stroke-dasharray:none;stroke-opacity:1"
         id="rect10412"
         width="37.074684"
         height="66.052223"
         x="-494.14813"
         y="-1540.333"
         ry="4.9054379" />
      <rect
         style="opacity:1;fill:none;fill-opacity:1;fill-rule:nonzero;stroke:#000000;stroke-width:1.70000005;stroke-linecap:round;stroke-linejoin:round;stroke-miterlimit:4;stroke-dasharray:none;stroke-opacity:1"
         id="rect10414"
         width="36.570988"
         height="51.547443"
         x="-493.89709"
         y="-1534.0938"
         ry="0" />
      <circle
         style="opacity:1;fill:none;fill-opacity:1;fill-rule:nonzero;stroke:#000000;stroke-width:1.70000005;stroke-linecap:round;stroke-linejoin:round;stroke-miterlimit:4;stroke-dasharray:none;stroke-opacity:1"
         id="path10416"
         cx="-475.61102"
         cy="-1478.5801"
         r="2.5612762" />
      <path
         style="fill:none;fill-rule:evenodd;stroke:#000000;stroke-width:1.70000005;stroke-linecap:round;stroke-linejoin:miter;stroke-miterlimit:4;stroke-dasharray:none;stroke-opacity:1"
         d="m -483.6213,-1536.9417 1.197,0"
         id="path10418" />
      <path
         style="opacity:1;fill:none;fill-opacity:1;fill-rule:nonzero;stroke:#000000;stroke-width:1.70000005;stroke-linecap:round;stroke-linejoin:round;stroke-miterlimit:4;stroke-dasharray:none;stroke-opacity:1"
         id="path10435"
         d="m 988.95865,-1260.5139 a 5.7351365,5.7351365 0 0 1 -2.37574,4.6482 5.7351365,5.7351365 0 0 1 -5.15894,0.7973"
         transform="matrix(0.58077381,-0.81406497,0.81406497,0.58077381,0,0)" />
      <path
         style="opacity:1;fill:none;fill-opacity:1;fill-rule:nonzero;stroke:#000000;stroke-width:1.70000005;stroke-linecap:round;stroke-linejoin:round;stroke-miterlimit:4;stroke-dasharray:none;stroke-opacity:1"
         id="path10435-4"
         d="m 992.19733,-1258.9622 a 7.9870071,7.9870071 0 0 1 -3.30855,6.4734 7.9870071,7.9870071 0 0 1 -7.18457,1.1103"
         transform="matrix(0.58077381,-0.81406497,0.81406497,0.58077381,0,0)" />
      <path
         style="opacity:1;fill:none;fill-opacity:1;fill-rule:nonzero;stroke:#000000;stroke-width:1.70000005;stroke-linecap:round;stroke-linejoin:round;stroke-miterlimit:4;stroke-dasharray:none;stroke-opacity:1"
         id="path10435-9"
         d="m -953.65293,1293.7727 a 5.7351365,5.7351365 0 0 1 -2.37573,4.6483 5.7351365,5.7351365 0 0 1 -5.15894,0.7972"
         transform="matrix(-0.58077381,0.81406497,-0.81406497,-0.58077381,0,0)" />
      <path
         style="opacity:1;fill:none;fill-opacity:1;fill-rule:nonzero;stroke:#000000;stroke-width:1.70000005;stroke-linecap:round;stroke-linejoin:round;stroke-miterlimit:4;stroke-dasharray:none;stroke-opacity:1"
         id="path10435-4-2"
         d="m -950.41424,1295.3245 a 7.9870071,7.9870071 0 0 1 -3.30855,6.4733 7.9870071,7.9870071 0 0 1 -7.18458,1.1103"
         transform="matrix(-0.58077381,0.81406497,-0.81406497,-0.58077381,0,0)" />
    </g>
  </g>
</svg>
