<?xml version="1.0" encoding="UTF-8" standalone="no"?>
<!-- Created with Inkscape (http://www.inkscape.org/) -->

<svg
   xmlns:dc="http://purl.org/dc/elements/1.1/"
   xmlns:cc="http://creativecommons.org/ns#"
   xmlns:rdf="http://www.w3.org/1999/02/22-rdf-syntax-ns#"
   xmlns:svg="http://www.w3.org/2000/svg"
   xmlns="http://www.w3.org/2000/svg"
   xmlns:sodipodi="http://sodipodi.sourceforge.net/DTD/sodipodi-0.dtd"
   xmlns:inkscape="http://www.inkscape.org/namespaces/inkscape"
   width="16.149899mm"
   height="16.295626mm"
   viewBox="0 0 57.22405 57.740406"
   id="svg9929"
   version="1.1"
   inkscape:version="0.91 r13725"
   sodipodi:docname="resize.svg">
  <defs
     id="defs9931" />
  <sodipodi:namedview
     id="base"
     pagecolor="#ffffff"
     bordercolor="#666666"
     borderopacity="1.0"
     inkscape:pageopacity="0.0"
     inkscape:pageshadow="2"
     inkscape:zoom="0.35"
     inkscape:cx="-620.67366"
     inkscape:cy="114.58444"
     inkscape:document-units="px"
     inkscape:current-layer="layer1"
     showgrid="false"
     fit-margin-top="0"
     fit-margin-left="0"
     fit-margin-right="0"
     fit-margin-bottom="0"
     inkscape:window-width="1920"
     inkscape:window-height="1043"
     inkscape:window-x="1920"
     inkscape:window-y="0"
     inkscape:window-maximized="1" />
  <metadata
     id="metadata9934">
    <rdf:RDF>
      <cc:Work
         rdf:about="">
        <dc:format>image/svg+xml</dc:format>
        <dc:type
           rdf:resource="http://purl.org/dc/dcmitype/StillImage" />
        <dc:title></dc:title>
      </cc:Work>
    </rdf:RDF>
  </metadata>
  <g
     inkscape:label="Layer 1"
     inkscape:groupmode="layer"
     id="layer1"
     transform="translate(-242.81652,-614.92053)">
    <g
       id="g11401"
       transform="matrix(0.88612277,0,0,0.88612277,-7835.7801,-2026.6667)"
       inkscape:export-xdpi="101.597"
       inkscape:export-ydpi="101.597">
      <g
         transform="matrix(0.11683446,0,0,0.11683446,9119.0253,2983.4903)"
         id="g11347">
        <g
           id="g11299">
          <g
             id="g11301">
            <path
               sodipodi:nodetypes="sssscscscsssss"
               inkscape:connector-curvature="0"
               d="m 513.61233,-20.781082 -147.788,0 c -11.046,0 -20,8.954 -20,20.00000003 0,11.04599997 8.954,19.99999997 20,19.99999997 l 99.503,0 -107.95267,104.189222 c -7.94833,7.67123 -7.811,20.474 0,28.284 7.81,7.81 20.33564,7.67119 28.284,0 l 107.95367,-104.189222 0,99.503002 c 0,11.046 8.954,20 20,20 11.046,0 20,-8.954 20,-20 l 0,-147.78700197 c 0,-10.88500003 -8.846,-20.00000003 -20,-20.00000003 z"
               id="path11303" />
          </g>
        </g>
        <g
           id="g11305">
          <g
             id="g11307">
            <path
               sodipodi:nodetypes="sccsssssssscss"
               inkscape:connector-curvature="0"
               d="m 157.11907,363.19336 c -7.811,-7.81 -20.474,-7.811 -28.284,0 L 20.881405,468.6533 l 0,-99.503 c 0,-11.046 -8.954,-20 -20.00000041,-20 -11.04599959,0 -19.99999959,8.954 -19.99999959,20 l 0,147.787 c 0,10.866 8.853,20 19.99999959,20 l 147.78799541,0 c 11.046,0 20,-8.954 20,-20 0,-11.046 -8.954,-20 -20,-20 l -99.503995,0 107.953665,-105.45994 c 7.90174,-7.71921 7.811,-20.474 0,-28.284 z"
               id="path11309" />
          </g>
        </g>
        <g
           id="g11311" />
        <g
           id="g11313" />
        <g
           id="g11315" />
        <g
           id="g11317" />
        <g
           id="g11319" />
        <g
           id="g11321" />
        <g
           id="g11323" />
        <g
           id="g11325" />
        <g
           id="g11327" />
        <g
           id="g11329" />
        <g
           id="g11331" />
        <g
           id="g11333" />
        <g
           id="g11335" />
        <g
           id="g11337" />
        <g
           id="g11339" />
      </g>
      <rect
         transform="matrix(0.7034649,-0.71073,0.71073,0.7034649,0,0)"
         ry="2.1584189"
         y="8619.9385"
         x="4297.3521"
         height="4.3168378"
         width="8.2601032"
         id="rect11384"
         style="opacity:1;fill:#000000;fill-opacity:1;fill-rule:nonzero;stroke:none;stroke-width:3.5;stroke-linecap:round;stroke-linejoin:round;stroke-miterlimit:4;stroke-dasharray:none;stroke-opacity:0.97254902" />
      <rect
         inkscape:transform-center-y="-0.37302431"
         inkscape:transform-center-x="-0.26637661"
         transform="matrix(0.7034649,-0.71073,0.71073,0.7034649,0,0)"
         ry="2.1584189"
         y="8620.5"
         x="4284.3403"
         height="4.3168378"
         width="8.2601032"
         id="rect11384-6"
         style="opacity:1;fill:#000000;fill-opacity:1;fill-rule:nonzero;stroke:none;stroke-width:3.5;stroke-linecap:round;stroke-linejoin:round;stroke-miterlimit:4;stroke-dasharray:none;stroke-opacity:0.97254902" />
    </g>
  </g>
</svg>
