<?xml version="1.0" encoding="UTF-8" standalone="no"?>
<svg
   xmlns:dc="http://purl.org/dc/elements/1.1/"
   xmlns:cc="http://creativecommons.org/ns#"
   xmlns:rdf="http://www.w3.org/1999/02/22-rdf-syntax-ns#"
   xmlns:svg="http://www.w3.org/2000/svg"
   xmlns="http://www.w3.org/2000/svg"
   version="1.1"
   id="svg9562"
   viewBox="0 0 68.654095 74.760975"
   height="21.099209mm"
   width="19.375711mm">
  <defs
     id="defs9564">
    <mask
       id="mask35451"
       maskUnits="userSpaceOnUse">
      <rect
         ry="2.4555299"
         y="95.999962"
         x="81.599991"
         height="835.19995"
         width="1725.6"
         id="rect35453"
         style="opacity:1;fill:#ffffff;fill-opacity:1;fill-rule:nonzero;stroke:none;stroke-width:3;stroke-linecap:round;stroke-linejoin:miter;stroke-miterlimit:4;stroke-dasharray:none;stroke-dashoffset:0;stroke-opacity:1" />
    </mask>
  </defs>
  <metadata
     id="metadata9567">
    <rdf:RDF>
      <cc:Work
         rdf:about="">
        <dc:format>image/svg+xml</dc:format>
        <dc:type
           rdf:resource="http://purl.org/dc/dcmitype/StillImage" />
        <dc:title></dc:title>
      </cc:Work>
    </rdf:RDF>
  </metadata>
  <g
     transform="translate(-837.23425,-1380.1816)"
     id="layer1">
    <g
       transform="matrix(1.062716,0,0,1.062716,-12443.467,-1645.0796)"
       id="g11784">
      <path
         style="fill:none;fill-rule:evenodd;stroke:#000000;stroke-width:1.70000005;stroke-linecap:round;stroke-linejoin:round;stroke-miterlimit:4;stroke-dasharray:none;stroke-opacity:1"
         d="m 12538.329,2904.6121 c 0,0 2.716,8.5716 8.938,8.4846 6.222,-0.087 5.098,-14.7384 6.932,-22.0547 1.834,-7.3163 6.549,-19.4776 6.496,-25.6375 -0.106,-12.3197 -7.6,-16.0896 -14.657,-17.1194 -7.057,-1.0298 -13.822,3.8712 -14.636,4.2114 -0.814,0.3402 -1.001,0.327 -1.768,0 -0.767,-0.327 -8.42,-6.0716 -16.882,-4.7118 -8.462,1.3598 -15.259,5.81 -14.949,17.6194 0.155,5.9047 5.195,18.5094 7.044,25.4099 1.849,6.9005 1.436,22.2443 7.405,22.2823 l 0,4e-4 c 5.969,0.038 9.323,-8.4846 9.323,-8.4846"
         id="path10588-8-1" />
      <path
         style="fill:none;fill-rule:evenodd;stroke:#000000;stroke-width:1.43381703;stroke-linecap:butt;stroke-linejoin:round;stroke-miterlimit:4;stroke-dasharray:none;stroke-opacity:1"
         d="m 12521.41,2897.7279 0,-21.4978 4.995,-5.4826 6.835,0 4.733,5.194 0,21.7864 -4.799,0 0,8.1722 -2.648,10.4579 -2.28,0 -2.472,-10.4579 0,-8.1722 z"
         id="path11375" />
      <path
         style="fill:none;fill-rule:evenodd;stroke:#000000;stroke-width:1.29999995;stroke-linecap:round;stroke-linejoin:miter;stroke-miterlimit:4;stroke-dasharray:none;stroke-opacity:1"
         d="m 12518.874,2886.6428 21.755,-8.7883"
         id="path11377" />
      <path
         style="fill:none;fill-rule:evenodd;stroke:#000000;stroke-width:1.29999995;stroke-linecap:round;stroke-linejoin:miter;stroke-miterlimit:4;stroke-dasharray:none;stroke-opacity:1"
         d="m 12518.874,2890.2279 21.755,-8.7883"
         id="path11377-9" />
      <path
         style="fill:none;fill-rule:evenodd;stroke:#000000;stroke-width:1.29999995;stroke-linecap:round;stroke-linejoin:miter;stroke-miterlimit:4;stroke-dasharray:none;stroke-opacity:1"
         d="m 12518.874,2893.8124 21.755,-8.7883"
         id="path11377-9-6" />
    </g>
  </g>
</svg>
