<?xml version="1.0" encoding="UTF-8" standalone="no"?>
<svg
   xmlns:dc="http://purl.org/dc/elements/1.1/"
   xmlns:cc="http://creativecommons.org/ns#"
   xmlns:rdf="http://www.w3.org/1999/02/22-rdf-syntax-ns#"
   xmlns:svg="http://www.w3.org/2000/svg"
   xmlns="http://www.w3.org/2000/svg"
   version="1.1"
   id="svg9562"
   viewBox="0 0 46.315601 44.199818"
   height="12.474171mm"
   width="13.071292mm">
  <defs
     id="defs9564" />
  <metadata
     id="metadata9567">
    <rdf:RDF>
      <cc:Work
         rdf:about="">
        <dc:format>image/svg+xml</dc:format>
        <dc:type
           rdf:resource="http://purl.org/dc/dcmitype/StillImage" />
        <dc:title></dc:title>
      </cc:Work>
    </rdf:RDF>
  </metadata>
  <g
     transform="translate(90.448257,-543.46253)"
     id="layer1">
    <g
       transform="translate(409.29837,1899.6051)"
       id="g19090">
      <path
         style="opacity:1;fill:none;fill-opacity:1;fill-rule:nonzero;stroke:#000000;stroke-width:1.70000005;stroke-linecap:round;stroke-linejoin:round;stroke-miterlimit:4;stroke-dasharray:none;stroke-opacity:1"
         d="m -477.4423,-1318.4458 c -0.354,-0.4833 -7.573,-11.4599 -9.077,-14.1788 -1.529,-2.765 -3.141,-6.8996 -3.153,-10.3084 -0.02,-6.8174 5.477,-12.3234 12.294,-12.3594 6.817,-0.036 12.377,5.4985 12.425,12.3594 0,3.4305 -1.512,7.3802 -2.937,10.3084 -0.74,1.5202 -7.792,13.716 -8.152,14.1784 -0.361,0.4625 -1.047,0.4834 -1.4,0 z"
         id="path10504" />
      <circle
         style="opacity:1;fill:none;fill-opacity:1;fill-rule:nonzero;stroke:#000000;stroke-width:1.70000005;stroke-linecap:round;stroke-linejoin:round;stroke-miterlimit:4;stroke-dasharray:none;stroke-opacity:1"
         id="path10416-9"
         cx="-477.31317"
         cy="-1343.1406"
         r="4.8169546" />
      <path
         style="opacity:1;fill:none;fill-opacity:1;fill-rule:nonzero;stroke:#000000;stroke-width:1.70000005;stroke-linecap:round;stroke-linejoin:round;stroke-miterlimit:4;stroke-dasharray:none;stroke-opacity:1"
         id="path10524"
         d="m 1321.6619,-467.69589 a 4.6264105,22.308964 0 0 1 -5.1252,13.00378 4.6264105,22.308964 0 0 1 -3.7423,-21.31241 4.6264105,22.308964 0 0 1 3.5047,-22.23219 4.6264105,22.308964 0 0 1 5.2599,11.68572"
         transform="matrix(0,-1,1,0,0,0)" />
    </g>
  </g>
</svg>
