<?xml version="1.0" encoding="UTF-8" standalone="no"?>
<svg
   xmlns:dc="http://purl.org/dc/elements/1.1/"
   xmlns:cc="http://creativecommons.org/ns#"
   xmlns:rdf="http://www.w3.org/1999/02/22-rdf-syntax-ns#"
   xmlns:svg="http://www.w3.org/2000/svg"
   xmlns="http://www.w3.org/2000/svg"
   version="1.1"
   id="svg9562"
   viewBox="0 0 71.543663 73.035061"
   height="20.612118mm"
   width="20.191212mm">
  <defs
     id="defs9564">
    <mask
       id="mask35451"
       maskUnits="userSpaceOnUse">
      <rect
         ry="2.4555299"
         y="95.999962"
         x="81.599991"
         height="835.19995"
         width="1725.6"
         id="rect35453"
         style="opacity:1;fill:#ffffff;fill-opacity:1;fill-rule:nonzero;stroke:none;stroke-width:3;stroke-linecap:round;stroke-linejoin:miter;stroke-miterlimit:4;stroke-dasharray:none;stroke-dashoffset:0;stroke-opacity:1" />
    </mask>
  </defs>
  <metadata
     id="metadata9567">
    <rdf:RDF>
      <cc:Work
         rdf:about="">
        <dc:format>image/svg+xml</dc:format>
        <dc:type
           rdf:resource="http://purl.org/dc/dcmitype/StillImage" />
        <dc:title></dc:title>
      </cc:Work>
    </rdf:RDF>
  </metadata>
  <g
     transform="translate(-746.08545,-1578.615)"
     id="layer1">
    <g
       id="g17091"
       transform="translate(946.29805,-904.59174)">
      <path
         style="fill:none;fill-rule:evenodd;stroke:#000000;stroke-width:1.40899909;stroke-linecap:round;stroke-linejoin:round;stroke-miterlimit:4;stroke-dasharray:none;stroke-opacity:1"
         d="m -151.31736,2505.3748 c -2.29497,-2.1655 -5.30647,-3.1606 -8.22905,-3.5876 -5.84516,-0.8541 -11.45089,3.2105 -12.12468,3.4927 -0.67378,0.282 -0.8294,0.271 -1.46385,0 -0.63445,-0.2712 -6.97383,-5.0356 -13.98357,-3.9076 -7.00974,1.1276 -12.63942,4.8182 -12.38119,14.612 0.13681,4.8971 4.30092,15.3503 5.83147,21.0732 1.53397,5.7227 1.19195,18.4476 6.13417,18.4793 l 0,1e-4 c 4.94563,0.032 9.04135,-9.621 9.04135,-9.621 0,0 2.01963,-3.8634 5.5493,-3.8016 3.52967,0.061 5.32699,3.5464 5.32699,3.5464 0,0 3.93325,9.9486 9.08752,9.8762 5.15256,-0.072 4.22226,-12.2228 5.74084,-18.2904 0.75929,-3.0338 2.11712,-7.072 3.27657,-10.9904"
         id="path10588" />
      <path
         style="opacity:1;fill:none;fill-opacity:1;fill-rule:nonzero;stroke:#000000;stroke-width:1.40899909;stroke-linecap:round;stroke-linejoin:round;stroke-miterlimit:4;stroke-dasharray:none;stroke-dashoffset:0;stroke-opacity:1"
         d="m -153.88082,2483.911 c 1.13723,4.2081 4.14189,6.7322 7.92123,7.9332 -3.78276,0.9278 -7.29191,4.1946 -7.92123,7.9334 -1.26035,-3.7569 -3.51085,-6.6722 -7.92636,-7.9334 4.50443,-1.2309 7.05592,-3.6948 7.92636,-7.9332 z"
         id="rect10592" />
      <path
         style="opacity:1;fill:none;fill-opacity:1;fill-rule:nonzero;stroke:#000000;stroke-width:1.40899909;stroke-linecap:round;stroke-linejoin:round;stroke-miterlimit:4;stroke-dasharray:none;stroke-dashoffset:0;stroke-opacity:1"
         d="m -144.85315,2502.317 c 1.62289,5.997 5.90159,9.5942 11.29185,11.3062 -5.39368,1.3221 -10.39404,5.9778 -11.29185,11.3062 -1.79732,-5.3544 -5.00378,-9.5089 -11.29356,-11.3062 6.41804,-1.7548 10.05373,-5.2661 11.29356,-11.3062 z"
         id="rect10592-0" />
      <path
         style="opacity:1;fill:none;fill-opacity:1;fill-rule:nonzero;stroke:#000000;stroke-width:1.40899909;stroke-linecap:round;stroke-linejoin:round;stroke-miterlimit:4;stroke-dasharray:none;stroke-dashoffset:0;stroke-opacity:1"
         d="m -135.48004,2492.7566 c 0.87558,3.2441 3.19107,5.1898 6.1068,6.1158 -2.91744,0.715 -5.62284,3.2337 -6.1068,6.1161 -0.97134,-2.8963 -2.70881,-5.1439 -6.11022,-6.1161 3.47152,-0.9491 5.43644,-2.8487 6.11022,-6.1158 z"
         id="rect10592-7" />
    </g>
  </g>
</svg>
